<svg id="visual" viewBox="0 0 960 300" width="960" height="300" xmlns="http://www.w3.org/2000/svg" xmlns:xlink="http://www.w3.org/1999/xlink" version="1.1"><rect x="0" y="0" width="960" height="300" fill="#202731"></rect><path d="M0 281L13.3 273C26.7 265 53.3 249 80 248.7C106.7 248.3 133.3 263.7 160 260.8C186.7 258 213.3 237 240 226.2C266.7 215.3 293.3 214.7 320 215.3C346.7 216 373.3 218 400 223.7C426.7 229.3 453.3 238.7 480 247C506.7 255.3 533.3 262.7 560 264.8C586.7 267 613.3 264 640 253.8C666.7 243.7 693.3 226.3 720 219.3C746.7 212.3 773.3 215.7 800 227.2C826.7 238.7 853.3 258.3 880 267C906.7 275.7 933.3 273.3 946.7 272.2L960 271L960 0L946.7 0C933.3 0 906.7 0 880 0C853.3 0 826.7 0 800 0C773.3 0 746.7 0 720 0C693.3 0 666.7 0 640 0C613.3 0 586.7 0 560 0C533.3 0 506.7 0 480 0C453.3 0 426.7 0 400 0C373.3 0 346.7 0 320 0C293.3 0 266.7 0 240 0C213.3 0 186.7 0 160 0C133.3 0 106.7 0 80 0C53.3 0 26.7 0 13.3 0L0 0Z" fill="#232368"></path><path d="M0 260L13.3 255.7C26.7 251.3 53.3 242.7 80 242.7C106.7 242.7 133.3 251.3 160 244.2C186.7 237 213.3 214 240 202.3C266.7 190.7 293.3 190.3 320 188.7C346.7 187 373.3 184 400 191.3C426.7 198.7 453.3 216.3 480 227.7C506.7 239 533.3 244 560 244.7C586.7 245.3 613.3 241.7 640 231.7C666.7 221.7 693.3 205.3 720 201.5C746.7 197.7 773.3 206.3 800 214.3C826.7 222.3 853.3 229.7 880 232.8C906.7 236 933.3 235 946.7 234.5L960 234L960 0L946.7 0C933.3 0 906.7 0 880 0C853.3 0 826.7 0 800 0C773.3 0 746.7 0 720 0C693.3 0 666.7 0 640 0C613.3 0 586.7 0 560 0C533.3 0 506.7 0 480 0C453.3 0 426.7 0 400 0C373.3 0 346.7 0 320 0C293.3 0 266.7 0 240 0C213.3 0 186.7 0 160 0C133.3 0 106.7 0 80 0C53.3 0 26.7 0 13.3 0L0 0Z" fill="#3b2470"></path><path d="M0 185L13.3 186C26.7 187 53.3 189 80 192.8C106.7 196.7 133.3 202.3 160 210.5C186.7 218.7 213.3 229.3 240 234.5C266.7 239.7 293.3 239.3 320 233.7C346.7 228 373.3 217 400 217.2C426.7 217.3 453.3 228.7 480 231.5C506.7 234.3 533.3 228.7 560 225.7C586.7 222.7 613.3 222.3 640 216C666.7 209.7 693.3 197.3 720 188.5C746.7 179.7 773.3 174.3 800 180.3C826.7 186.3 853.3 203.7 880 206C906.7 208.3 933.3 195.7 946.7 189.3L960 183L960 0L946.7 0C933.3 0 906.7 0 880 0C853.3 0 826.7 0 800 0C773.3 0 746.7 0 720 0C693.3 0 666.7 0 640 0C613.3 0 586.7 0 560 0C533.3 0 506.7 0 480 0C453.3 0 426.7 0 400 0C373.3 0 346.7 0 320 0C293.3 0 266.7 0 240 0C213.3 0 186.7 0 160 0C133.3 0 106.7 0 80 0C53.3 0 26.7 0 13.3 0L0 0Z" fill="#512477"></path><path d="M0 147L13.3 156.2C26.7 165.3 53.3 183.7 80 185.8C106.7 188 133.3 174 160 174.2C186.7 174.3 213.3 188.7 240 185.2C266.7 181.7 293.3 160.3 320 159.3C346.7 158.3 373.3 177.7 400 182.5C426.7 187.3 453.3 177.7 480 170.8C506.7 164 533.3 160 560 160C586.7 160 613.3 164 640 170.2C666.7 176.3 693.3 184.7 720 190.5C746.7 196.3 773.3 199.7 800 191C826.7 182.3 853.3 161.7 880 159.8C906.7 158 933.3 175 946.7 183.5L960 192L960 0L946.7 0C933.3 0 906.7 0 880 0C853.3 0 826.7 0 800 0C773.3 0 746.7 0 720 0C693.3 0 666.7 0 640 0C613.3 0 586.7 0 560 0C533.3 0 506.7 0 480 0C453.3 0 426.7 0 400 0C373.3 0 346.7 0 320 0C293.3 0 266.7 0 240 0C213.3 0 186.7 0 160 0C133.3 0 106.7 0 80 0C53.3 0 26.7 0 13.3 0L0 0Z" fill="#66237c"></path><path d="M0 156L13.3 155.8C26.7 155.7 53.3 155.3 80 152C106.7 148.7 133.3 142.3 160 142.8C186.7 143.3 213.3 150.7 240 153.2C266.7 155.7 293.3 153.3 320 152C346.7 150.7 373.3 150.3 400 152.5C426.7 154.7 453.3 159.3 480 167C506.7 174.7 533.3 185.3 560 182.3C586.7 179.3 613.3 162.7 640 161.8C666.7 161 693.3 176 720 177.8C746.7 179.7 773.3 168.3 800 157.7C826.7 147 853.3 137 880 139.5C906.7 142 933.3 157 946.7 164.5L960 172L960 0L946.7 0C933.3 0 906.7 0 880 0C853.3 0 826.7 0 800 0C773.3 0 746.7 0 720 0C693.3 0 666.7 0 640 0C613.3 0 586.7 0 560 0C533.3 0 506.7 0 480 0C453.3 0 426.7 0 400 0C373.3 0 346.7 0 320 0C293.3 0 266.7 0 240 0C213.3 0 186.7 0 160 0C133.3 0 106.7 0 80 0C53.3 0 26.7 0 13.3 0L0 0Z" fill="#7b207f"></path><path d="M0 157L13.3 155.2C26.7 153.3 53.3 149.7 80 148C106.7 146.3 133.3 146.7 160 150.8C186.7 155 213.3 163 240 163C266.7 163 293.3 155 320 145.8C346.7 136.7 373.3 126.3 400 119.7C426.7 113 453.3 110 480 119C506.7 128 533.3 149 560 149.5C586.7 150 613.3 130 640 130.3C666.7 130.7 693.3 151.3 720 159C746.7 166.7 773.3 161.3 800 150.2C826.7 139 853.3 122 880 121.2C906.7 120.3 933.3 135.7 946.7 143.3L960 151L960 0L946.7 0C933.3 0 906.7 0 880 0C853.3 0 826.7 0 800 0C773.3 0 746.7 0 720 0C693.3 0 666.7 0 640 0C613.3 0 586.7 0 560 0C533.3 0 506.7 0 480 0C453.3 0 426.7 0 400 0C373.3 0 346.7 0 320 0C293.3 0 266.7 0 240 0C213.3 0 186.7 0 160 0C133.3 0 106.7 0 80 0C53.3 0 26.7 0 13.3 0L0 0Z" fill="#911b81"></path><path d="M0 119L13.3 115.7C26.7 112.3 53.3 105.7 80 104.3C106.7 103 133.3 107 160 105.5C186.7 104 213.3 97 240 100.2C266.7 103.3 293.3 116.7 320 123.2C346.7 129.7 373.3 129.3 400 124.8C426.7 120.3 453.3 111.7 480 108.8C506.7 106 533.3 109 560 116.8C586.7 124.7 613.3 137.3 640 143.8C666.7 150.3 693.3 150.7 720 140.7C746.7 130.7 773.3 110.3 800 108.7C826.7 107 853.3 124 880 133.5C906.7 143 933.3 145 946.7 146L960 147L960 0L946.7 0C933.3 0 906.7 0 880 0C853.3 0 826.7 0 800 0C773.3 0 746.7 0 720 0C693.3 0 666.7 0 640 0C613.3 0 586.7 0 560 0C533.3 0 506.7 0 480 0C453.3 0 426.7 0 400 0C373.3 0 346.7 0 320 0C293.3 0 266.7 0 240 0C213.3 0 186.7 0 160 0C133.3 0 106.7 0 80 0C53.3 0 26.7 0 13.3 0L0 0Z" fill="#a51281"></path><path d="M0 92L13.3 97.7C26.7 103.3 53.3 114.7 80 114.7C106.7 114.7 133.3 103.3 160 98.3C186.7 93.3 213.3 94.7 240 97C266.7 99.3 293.3 102.7 320 106C346.7 109.3 373.3 112.7 400 111.5C426.7 110.3 453.3 104.7 480 106.2C506.7 107.7 533.3 116.3 560 115.8C586.7 115.3 613.3 105.7 640 96.8C666.7 88 693.3 80 720 79.3C746.7 78.7 773.3 85.3 800 86.8C826.7 88.3 853.3 84.7 880 82.8C906.7 81 933.3 81 946.7 81L960 81L960 0L946.7 0C933.3 0 906.7 0 880 0C853.3 0 826.7 0 800 0C773.3 0 746.7 0 720 0C693.3 0 666.7 0 640 0C613.3 0 586.7 0 560 0C533.3 0 506.7 0 480 0C453.3 0 426.7 0 400 0C373.3 0 346.7 0 320 0C293.3 0 266.7 0 240 0C213.3 0 186.7 0 160 0C133.3 0 106.7 0 80 0C53.3 0 26.7 0 13.3 0L0 0Z" fill="#b9057e"></path><path d="M0 75L13.3 77.2C26.7 79.3 53.3 83.7 80 81.8C106.7 80 133.3 72 160 71.7C186.7 71.3 213.3 78.7 240 77.5C266.7 76.3 293.3 66.7 320 62.5C346.7 58.3 373.3 59.7 400 60.7C426.7 61.7 453.3 62.3 480 62.3C506.7 62.3 533.3 61.7 560 66.7C586.7 71.7 613.3 82.3 640 86C666.7 89.7 693.3 86.3 720 85.7C746.7 85 773.3 87 800 87.8C826.7 88.7 853.3 88.3 880 87.7C906.7 87 933.3 86 946.7 85.5L960 85L960 0L946.7 0C933.3 0 906.7 0 880 0C853.3 0 826.7 0 800 0C773.3 0 746.7 0 720 0C693.3 0 666.7 0 640 0C613.3 0 586.7 0 560 0C533.3 0 506.7 0 480 0C453.3 0 426.7 0 400 0C373.3 0 346.7 0 320 0C293.3 0 266.7 0 240 0C213.3 0 186.7 0 160 0C133.3 0 106.7 0 80 0C53.3 0 26.7 0 13.3 0L0 0Z" fill="#cd007b"></path><path d="M0 60L13.3 62.8C26.7 65.7 53.3 71.3 80 70C106.7 68.7 133.3 60.3 160 60.2C186.7 60 213.3 68 240 71C266.7 74 293.3 72 320 70.5C346.7 69 373.3 68 400 64.8C426.7 61.7 453.3 56.3 480 52.3C506.7 48.3 533.3 45.7 560 50.2C586.7 54.7 613.3 66.3 640 71.5C666.7 76.7 693.3 75.3 720 73C746.7 70.7 773.3 67.3 800 66.5C826.7 65.7 853.3 67.3 880 65.8C906.7 64.3 933.3 59.7 946.7 57.3L960 55L960 0L946.7 0C933.3 0 906.7 0 880 0C853.3 0 826.7 0 800 0C773.3 0 746.7 0 720 0C693.3 0 666.7 0 640 0C613.3 0 586.7 0 560 0C533.3 0 506.7 0 480 0C453.3 0 426.7 0 400 0C373.3 0 346.7 0 320 0C293.3 0 266.7 0 240 0C213.3 0 186.7 0 160 0C133.3 0 106.7 0 80 0C53.3 0 26.7 0 13.3 0L0 0Z" fill="#df0075"></path><path d="M0 52L13.3 48.2C26.7 44.3 53.3 36.7 80 37.3C106.7 38 133.3 47 160 50.2C186.7 53.3 213.3 50.7 240 45.8C266.7 41 293.3 34 320 30C346.7 26 373.3 25 400 24.7C426.7 24.3 453.3 24.7 480 31C506.7 37.3 533.3 49.7 560 52.2C586.7 54.7 613.3 47.3 640 41.7C666.7 36 693.3 32 720 35.3C746.7 38.7 773.3 49.3 800 51.5C826.7 53.7 853.3 47.3 880 45.5C906.7 43.7 933.3 46.3 946.7 47.7L960 49L960 0L946.7 0C933.3 0 906.7 0 880 0C853.3 0 826.7 0 800 0C773.3 0 746.7 0 720 0C693.3 0 666.7 0 640 0C613.3 0 586.7 0 560 0C533.3 0 506.7 0 480 0C453.3 0 426.7 0 400 0C373.3 0 346.7 0 320 0C293.3 0 266.7 0 240 0C213.3 0 186.7 0 160 0C133.3 0 106.7 0 80 0C53.3 0 26.7 0 13.3 0L0 0Z" fill="#f0006e"></path><path d="M0 19L13.3 18.8C26.7 18.7 53.3 18.3 80 17.3C106.7 16.3 133.3 14.7 160 15.8C186.7 17 213.3 21 240 21C266.7 21 293.3 17 320 14.3C346.7 11.7 373.3 10.3 400 12.8C426.7 15.3 453.3 21.7 480 25.8C506.7 30 533.3 32 560 33.7C586.7 35.3 613.3 36.7 640 34.5C666.7 32.3 693.3 26.7 720 22.2C746.7 17.7 773.3 14.3 800 12.3C826.7 10.3 853.3 9.7 880 12C906.7 14.3 933.3 19.7 946.7 22.3L960 25L960 0L946.7 0C933.3 0 906.7 0 880 0C853.3 0 826.7 0 800 0C773.3 0 746.7 0 720 0C693.3 0 666.7 0 640 0C613.3 0 586.7 0 560 0C533.3 0 506.7 0 480 0C453.3 0 426.7 0 400 0C373.3 0 346.7 0 320 0C293.3 0 266.7 0 240 0C213.3 0 186.7 0 160 0C133.3 0 106.7 0 80 0C53.3 0 26.7 0 13.3 0L0 0Z" fill="#ff0066"></path></svg>