<svg id="visual" viewBox="0 0 960 300" width="960" height="300" xmlns="http://www.w3.org/2000/svg" xmlns:xlink="http://www.w3.org/1999/xlink" version="1.1"><rect x="0" y="0" width="960" height="300" fill="#202731"></rect><path d="M0 119L22.8 113.8C45.7 108.7 91.3 98.3 137 98.7C182.7 99 228.3 110 274 112.7C319.7 115.3 365.3 109.7 411.2 105.3C457 101 503 98 548.8 101C594.7 104 640.3 113 686 112.2C731.7 111.3 777.3 100.7 823 95.2C868.7 89.7 914.3 89.3 937.2 89.2L960 89L960 0L937.2 0C914.3 0 868.7 0 823 0C777.3 0 731.7 0 686 0C640.3 0 594.7 0 548.8 0C503 0 457 0 411.2 0C365.3 0 319.7 0 274 0C228.3 0 182.7 0 137 0C91.3 0 45.7 0 22.8 0L0 0Z" fill="#698afa"></path><path d="M0 64L22.8 63.3C45.7 62.7 91.3 61.3 137 62.7C182.7 64 228.3 68 274 72C319.7 76 365.3 80 411.2 77.8C457 75.7 503 67.3 548.8 64.2C594.7 61 640.3 63 686 64.5C731.7 66 777.3 67 823 66.5C868.7 66 914.3 64 937.2 63L960 62L960 0L937.2 0C914.3 0 868.7 0 823 0C777.3 0 731.7 0 686 0C640.3 0 594.7 0 548.8 0C503 0 457 0 411.2 0C365.3 0 319.7 0 274 0C228.3 0 182.7 0 137 0C91.3 0 45.7 0 22.8 0L0 0Z" fill="#b46cdb"></path><path d="M0 69L22.8 69.7C45.7 70.3 91.3 71.7 137 71.3C182.7 71 228.3 69 274 66.2C319.7 63.3 365.3 59.7 411.2 56.3C457 53 503 50 548.8 48.8C594.7 47.7 640.3 48.3 686 49.7C731.7 51 777.3 53 823 56.3C868.7 59.7 914.3 64.3 937.2 66.7L960 69L960 0L937.2 0C914.3 0 868.7 0 823 0C777.3 0 731.7 0 686 0C640.3 0 594.7 0 548.8 0C503 0 457 0 411.2 0C365.3 0 319.7 0 274 0C228.3 0 182.7 0 137 0C91.3 0 45.7 0 22.8 0L0 0Z" fill="#dd4ba9"></path><path d="M0 57L22.8 57C45.7 57 91.3 57 137 52.2C182.7 47.3 228.3 37.7 274 33.5C319.7 29.3 365.3 30.7 411.2 33.2C457 35.7 503 39.3 548.8 43.3C594.7 47.3 640.3 51.7 686 51.2C731.7 50.7 777.3 45.3 823 44.5C868.7 43.7 914.3 47.3 937.2 49.2L960 51L960 0L937.2 0C914.3 0 868.7 0 823 0C777.3 0 731.7 0 686 0C640.3 0 594.7 0 548.8 0C503 0 457 0 411.2 0C365.3 0 319.7 0 274 0C228.3 0 182.7 0 137 0C91.3 0 45.7 0 22.8 0L0 0Z" fill="#ea346e"></path><path d="M0 31L22.8 30.2C45.7 29.3 91.3 27.7 137 25.7C182.7 23.7 228.3 21.3 274 20C319.7 18.7 365.3 18.3 411.2 17.7C457 17 503 16 548.8 15.2C594.7 14.3 640.3 13.7 686 13.7C731.7 13.7 777.3 14.3 823 15C868.7 15.7 914.3 16.3 937.2 16.7L960 17L960 0L937.2 0C914.3 0 868.7 0 823 0C777.3 0 731.7 0 686 0C640.3 0 594.7 0 548.8 0C503 0 457 0 411.2 0C365.3 0 319.7 0 274 0C228.3 0 182.7 0 137 0C91.3 0 45.7 0 22.8 0L0 0Z" fill="#dd3f31"></path></svg>